<?xml version="1.0" encoding="UTF-8" standalone="no"?>
<!-- Created with Inkscape (http://www.inkscape.org/) -->

<svg
   xmlns:dc="http://purl.org/dc/elements/1.1/"
   xmlns:cc="http://creativecommons.org/ns#"
   xmlns:rdf="http://www.w3.org/1999/02/22-rdf-syntax-ns#"
   xmlns:svg="http://www.w3.org/2000/svg"
   xmlns="http://www.w3.org/2000/svg"
   xmlns:sodipodi="http://sodipodi.sourceforge.net/DTD/sodipodi-0.dtd"
   xmlns:inkscape="http://www.inkscape.org/namespaces/inkscape"
   width="900"
   height="250"
   viewBox="0 0 900.00003 249.99999"
   id="svg3346"
   version="1.1"
   inkscape:version="0.91 r13725"
   sodipodi:docname="cloud.svg">
  <defs
     id="defs3348" />
  <sodipodi:namedview
     id="base"
     pagecolor="#ffffff"
     bordercolor="#666666"
     borderopacity="1.0"
     inkscape:pageopacity="0.0"
     inkscape:pageshadow="2"
     inkscape:zoom="0.98994949"
     inkscape:cx="461.06717"
     inkscape:cy="69.778568"
     inkscape:document-units="px"
     inkscape:current-layer="svg3346"
     showgrid="false"
     units="px"
     inkscape:window-width="1535"
     inkscape:window-height="876"
     inkscape:window-x="65"
     inkscape:window-y="24"
     inkscape:window-maximized="1" />
  <metadata
     id="metadata3351">
    <rdf:RDF>
      <cc:Work
         rdf:about="">
        <dc:format>image/svg+xml</dc:format>
        <dc:type
           rdf:resource="http://purl.org/dc/dcmitype/StillImage" />
        <dc:title />
      </cc:Work>
    </rdf:RDF>
  </metadata>
  <path
     style="fill:none;fill-rule:evenodd;stroke:#000000;stroke-width:0.87615323px;stroke-linecap:butt;stroke-linejoin:miter;stroke-opacity:1"
     d="m 301.30101,217.5477 c 6.16271,6.0289 11.12097,15.38856 18.08278,21.44248 8.64782,7.51996 43.79171,6.59686 48.22071,-2.85906 9.38929,9.79774 49.03929,19.65682 53.1524,-0.71476 25.40166,0 53.38253,5.43322 73.427,-13.58019 10.75988,8.42095 42.73706,15.95753 44.38497,-6.43276 4.53947,7.89491 9.16284,21.30979 15.89093,27.16048 15.64326,13.6031 47.41475,-4.18341 47.67277,-28.5899 34.04204,0 42.25098,-36.70616 15.89091,-62.18312 32.04007,0 26.78301,-59.624819 0,-65.042084 C 603.63043,55.458942 549.00895,46.627789 551.17203,91.752023 546.03096,85.046165 540.44802,73.720167 535.2811,71.024333 520.47571,63.299625 493.95127,61.00417 482.67668,77.457065 463.59277,52.56451 423.8372,65.079016 411.44152,92.466775 400.21155,68.0533 368.12907,47.89655 353.35747,78.171817 335.63615,55.056582 293.49882,39.660901 287.05398,83.175054 273.1601,59.0113 249.44511,72.887809 242.669,96.040518 260.87106,64.384126 184.52395,39.329586 202.11976,81.745549 c -5.40593,-7.051342 -11.28382,-20.039335 -18.08277,-23.58668 -11.99093,-6.256268 -35.751,-0.941419 -38.90536,16.439196 -26.11357,0 -29.42102,44.627205 -7.12351,58.609345 -27.49449,-0.99842 -30.01073,49.90476 -10.95926,66.47163 -18.7862,37.20257 16.09622,57.07273 40.54925,44.31437 14.1752,-0.45559 36.51442,-9.09638 27.39813,-32.87848 9.23521,19.69946 36.81554,39.56581 50.41257,10.00648 15.23499,13.37236 49.62603,37.29343 55.8922,-3.57371 z"
     id="path3384"
     inkscape:connector-curvature="0" />
</svg>
