<?xml version="1.0" encoding="UTF-8" standalone="no"?>
<!-- Created with Inkscape (http://www.inkscape.org/) -->

<svg
   xmlns:dc="http://purl.org/dc/elements/1.1/"
   xmlns:cc="http://creativecommons.org/ns#"
   xmlns:rdf="http://www.w3.org/1999/02/22-rdf-syntax-ns#"
   xmlns:svg="http://www.w3.org/2000/svg"
   xmlns="http://www.w3.org/2000/svg"
   xmlns:sodipodi="http://sodipodi.sourceforge.net/DTD/sodipodi-0.dtd"
   xmlns:inkscape="http://www.inkscape.org/namespaces/inkscape"
   width="900"
   height="250"
   viewBox="0 0 900.00003 249.99999"
   id="svg3346"
   version="1.1"
   inkscape:version="0.91 r13725"
   sodipodi:docname="sun.svg">
  <defs
     id="defs3348">
    <inkscape:path-effect
       effect="spiro"
       id="path-effect3569"
       is_visible="true" />
    <inkscape:path-effect
       effect="spiro"
       id="path-effect3565"
       is_visible="true" />
    <inkscape:path-effect
       effect="spiro"
       id="path-effect3561"
       is_visible="true" />
    <inkscape:path-effect
       effect="spiro"
       id="path-effect3557"
       is_visible="true" />
    <inkscape:path-effect
       effect="spiro"
       id="path-effect3553"
       is_visible="true" />
    <inkscape:path-effect
       effect="spiro"
       id="path-effect3549"
       is_visible="true" />
    <inkscape:path-effect
       effect="spiro"
       id="path-effect3545"
       is_visible="true" />
    <inkscape:path-effect
       effect="spiro"
       id="path-effect3541"
       is_visible="true" />
    <inkscape:path-effect
       effect="spiro"
       id="path-effect3537"
       is_visible="true" />
    <inkscape:path-effect
       effect="spiro"
       id="path-effect3533"
       is_visible="true" />
    <inkscape:path-effect
       effect="spiro"
       id="path-effect3529"
       is_visible="true" />
    <inkscape:path-effect
       effect="spiro"
       id="path-effect3525"
       is_visible="true" />
  </defs>
  <sodipodi:namedview
     id="base"
     pagecolor="#ffffff"
     bordercolor="#666666"
     borderopacity="1.0"
     inkscape:pageopacity="0.0"
     inkscape:pageshadow="2"
     inkscape:zoom="0.98994949"
     inkscape:cx="462.31555"
     inkscape:cy="69.778568"
     inkscape:document-units="px"
     inkscape:current-layer="svg3346"
     showgrid="false"
     units="px"
     inkscape:window-width="1535"
     inkscape:window-height="876"
     inkscape:window-x="65"
     inkscape:window-y="24"
     inkscape:window-maximized="1" />
  <metadata
     id="metadata3351">
    <rdf:RDF>
      <cc:Work
         rdf:about="">
        <dc:format>image/svg+xml</dc:format>
        <dc:type
           rdf:resource="http://purl.org/dc/dcmitype/StillImage" />
        <dc:title />
      </cc:Work>
    </rdf:RDF>
  </metadata>
  <ellipse
     style="opacity:0.97000002;fill:none;stroke:#000000"
     id="path3497"
     cx="780.1601"
     cy="107.46696"
     rx="75.256363"
     ry="68.690376" />
  <path
     style="opacity:0.97000002;fill:none;fill-rule:evenodd;stroke:#000000;stroke-width:1px;stroke-linecap:butt;stroke-linejoin:miter;stroke-opacity:1"
     d="m 710.96465,50.898415 c 11.25251,-7.168368 7.07106,-39.395949 7.07106,-39.395949 0,0 12.80433,16.97541 24.24366,16.162441 8.08883,-0.574856 18.18275,-21.2132039 18.18275,-21.2132039 0,0 12.7931,15.1683699 20.20306,16.1624409 11.40549,1.530084 40.4061,-13.1319828 40.4061,-13.1319828 0,0 4.34643,24.9721918 12.12182,29.2944228 14.13879,7.859559 43.43656,-12.12183 43.43656,-12.12183 0,0 -21.01574,30.634921 -18.18274,41.416254 3.68067,14.007256 35.35534,25.253814 35.35534,25.253814 0,0 -24.23386,6.911538 -26.26397,17.172588 -2.77341,14.01796 24.24366,35.35534 24.24366,35.35534 0,0 -23.52085,-5.87896 -32.32488,2.0203 -11.03034,9.89678 -4.04061,39.39596 -4.04061,39.39596 0,0 -15.85903,-12.52959 -25.25381,-8.08123 -10.99795,5.20745 -12.12183,30.30458 -12.12183,30.30458 0,0 -14.17276,-18.87577 -26.26398,-20.20305 -14.8634,-1.63159 -34.34518,19.1929 -34.34518,19.1929 0,0 -2.02716,-19.76269 -11.11168,-24.24366 -12.05652,-5.94692 -34.34518,10.10152 -34.34518,10.10152 0,0 4.21116,-19.84944 -2.0203,-28.28426 -8.9858,-12.16307 -39.39596,-12.12184 -39.39596,-12.12184 0,0 26.7512,-17.24087 25.25382,-30.30457 -1.77918,-15.52221 -37.37565,-28.284273 -37.37565,-28.284273 0,0 29.93594,0.891967 35.35534,-10.101525 6.8841,-13.964699 -17.17259,-43.43656 -17.17259,-43.43656 0,0 24.35705,15.454277 34.34519,9.091373 z"
     id="path3597"
     inkscape:connector-curvature="0"
     sodipodi:nodetypes="scscscscscscscscscscscscscs" />
</svg>
